<svg xmlns="http://www.w3.org/2000/svg" width="291" height="232.476" viewBox="0 0 291 232.476">
  <g id="Group_2319" data-name="Group 2319" transform="translate(0 -28.118)">
    <g id="Background_Complete" data-name="Background Complete" transform="translate(0 43.736)">
      <g id="Group_2293" data-name="Group 2293">
        <rect id="Rectangle_1104" data-name="Rectangle 1104" width="291" height="0.146" transform="translate(0 190.573)" fill="#ebebeb"/>
        <rect id="Rectangle_1105" data-name="Rectangle 1105" width="19.277" height="0.146" transform="translate(242.565 199.941)" fill="#ebebeb"/>
        <rect id="Rectangle_1106" data-name="Rectangle 1106" width="5.06" height="0.146" transform="translate(187.711 201.52)" fill="#ebebeb"/>
        <rect id="Rectangle_1107" data-name="Rectangle 1107" width="11.17" height="0.146" transform="translate(230.813 194.537)" fill="#ebebeb"/>
        <rect id="Rectangle_1108" data-name="Rectangle 1108" width="25.139" height="0.146" transform="translate(30.531 195.514)" fill="#ebebeb"/>
        <rect id="Rectangle_1109" data-name="Rectangle 1109" width="3.686" height="0.146" transform="translate(60.851 195.514)" fill="#ebebeb"/>
        <rect id="Rectangle_1110" data-name="Rectangle 1110" width="54.519" height="0.146" transform="translate(76.516 197.972)" fill="#ebebeb"/>
        <path id="Path_15045" data-name="Path 15045" d="M153.913,219.57H41.529a3.326,3.326,0,0,1-3.322-3.322V58.274a3.326,3.326,0,0,1,3.322-3.321H153.913a3.325,3.325,0,0,1,3.321,3.321V216.248A3.326,3.326,0,0,1,153.913,219.57ZM41.529,55.1a3.18,3.18,0,0,0-3.177,3.176V216.248a3.18,3.18,0,0,0,3.177,3.177H153.913a3.18,3.18,0,0,0,3.176-3.177V58.274a3.18,3.18,0,0,0-3.176-3.176Z" transform="translate(-15.971 -54.953)" fill="#ebebeb"/>
        <path id="Path_15046" data-name="Path 15046" d="M370.21,219.57H257.826a3.326,3.326,0,0,1-3.321-3.322V58.274a3.325,3.325,0,0,1,3.321-3.321H370.21a3.326,3.326,0,0,1,3.323,3.321V216.248A3.326,3.326,0,0,1,370.21,219.57ZM257.826,55.1a3.18,3.18,0,0,0-3.176,3.176V216.248a3.18,3.18,0,0,0,3.176,3.177H370.21a3.18,3.18,0,0,0,3.177-3.177V58.274A3.18,3.18,0,0,0,370.21,55.1Z" transform="translate(-106.383 -54.953)" fill="#ebebeb"/>
      </g>
      <g id="Group_2300" data-name="Group 2300" transform="translate(32.888 13.354)">
        <g id="Group_2295" data-name="Group 2295" transform="translate(0 20.548)">
          <g id="Group_2294" data-name="Group 2294">
            <path id="Path_15047" data-name="Path 15047" d="M102.182,163.513H56.508L60.554,113.2H98.136Z" transform="translate(-56.508 -113.204)" fill="#ebebeb"/>
          </g>
          <rect id="Rectangle_1111" data-name="Rectangle 1111" width="2.483" height="106.362" transform="translate(21.595 50.309)" fill="#f5f5f5"/>
          <path id="Path_15048" data-name="Path 15048" d="M98.6,380.848H78.339a2.159,2.159,0,0,1,2.159-2.159H96.443a2.159,2.159,0,0,1,2.159,2.159Z" transform="translate(-65.634 -224.177)" fill="#f0f0f0"/>
          <path id="Path_15049" data-name="Path 15049" d="M93.614,203.556l2.483-2.373v-1.538H93.614Z" transform="translate(-72.019 -149.337)" fill="#e0e0e0"/>
        </g>
        <g id="Group_2298" data-name="Group 2298" transform="translate(63.664)">
          <g id="Group_2297" data-name="Group 2297">
            <g id="Group_2296" data-name="Group 2296">
              <rect id="Rectangle_1112" data-name="Rectangle 1112" width="144.184" height="69.06" fill="#e0e0e0"/>
              <rect id="Rectangle_1113" data-name="Rectangle 1113" width="147.168" height="69.06" transform="translate(2.315)" fill="#f5f5f5"/>
              <rect id="Rectangle_1114" data-name="Rectangle 1114" width="44.859" height="131.941" transform="translate(9.928 56.959) rotate(-90)" fill="#fff"/>
            </g>
          </g>
        </g>
        <g id="Group_2299" data-name="Group 2299" transform="translate(48.862 86.755)">
          <rect id="Rectangle_1115" data-name="Rectangle 1115" width="36.594" height="65.302" rx="11.005" transform="translate(178.908 90.464) rotate(180)" fill="#f5f5f5"/>
          <rect id="Rectangle_1116" data-name="Rectangle 1116" width="36.594" height="65.302" rx="11.005" transform="translate(167.953 90.464) rotate(180)" fill="#e6e6e6"/>
          <rect id="Rectangle_1117" data-name="Rectangle 1117" width="12.765" height="1.802" rx="0.901" transform="translate(171.226 25.161) rotate(180)" fill="#f5f5f5"/>
          <rect id="Rectangle_1118" data-name="Rectangle 1118" width="12.765" height="1.802" rx="0.901" transform="translate(167.405 25.161) rotate(180)" fill="#e6e6e6"/>
          <rect id="Rectangle_1119" data-name="Rectangle 1119" width="139.094" height="30.445" rx="5.462" transform="translate(162.684 90.464) rotate(180)" fill="#f0f0f0"/>
          <path id="Path_15050" data-name="Path 15050" d="M160.455,233.429H273.546c3.559,0,6.687,3.21,6.985,7.17l2.995,39.709c.3,3.96-2.345,7.17-5.9,7.17H164.531c-3.559,0-6.687-3.21-6.986-7.17L154.55,240.6C154.252,236.639,156.9,233.429,160.455,233.429Z" transform="translate(-146.342 -229.665)" fill="#ebebeb"/>
          <path id="Path_15051" data-name="Path 15051" d="M175.479,233.429H288.571c3.56,0,6.687,3.21,6.986,7.17l2.994,39.709c.3,3.96-2.344,7.17-5.9,7.17H179.556c-3.56,0-6.687-3.21-6.986-7.17L169.575,240.6C169.277,236.639,171.92,233.429,175.479,233.429Z" transform="translate(-152.623 -229.665)" fill="#fafafa"/>
          <path id="Path_15052" data-name="Path 15052" d="M281.434,280.07l-2.994-39.708c-.284-3.766-3.253-6.829-6.617-6.829V232.8c3.742,0,7.041,3.37,7.353,7.511l2.995,39.709Z" transform="translate(-195.371 -229.4)" fill="#f0f0f0"/>
          <rect id="Rectangle_1120" data-name="Rectangle 1120" width="36.594" height="65.302" rx="11.005" transform="translate(47.548 90.464) rotate(180)" fill="#f5f5f5"/>
          <rect id="Rectangle_1121" data-name="Rectangle 1121" width="125.981" height="16.863" rx="6.524" transform="translate(166.284 62.791) rotate(180)" fill="#f5f5f5"/>
          <path id="Path_15053" data-name="Path 15053" d="M311.758,322.842v-.737a3.456,3.456,0,0,0,3.231-3.636v-8.853a3.456,3.456,0,0,0-3.231-3.636v-.738a4.191,4.191,0,0,1,3.969,4.374v8.853A4.191,4.191,0,0,1,311.758,322.842Z" transform="translate(-212.065 -259.683)" fill="#ebebeb"/>
          <rect id="Rectangle_1122" data-name="Rectangle 1122" width="36.594" height="65.302" rx="11.005" transform="translate(36.594 90.464) rotate(180)" fill="#e6e6e6"/>
          <path id="Path_15054" data-name="Path 15054" d="M294.849,228.2c15.88,1.422,18.369,21.424,19.5,28.975s-13.1-.284-21.971.572-11.755,4.322-21.654,2.742-14.024-2.7-20.829-1.58-18.767,1.531-20-.612c-1.138-1.972-4.373-22.732-10.667-26.891-1.013-.669-.625-1.617.822-2.05C232,225.791,280.554,226.921,294.849,228.2Z" transform="translate(-173.147 -226.962)" fill="#e6e6e6"/>
        </g>
      </g>
    </g>
    <g id="Shadow" transform="translate(32.657 247.414)">
      <ellipse id="_Path_" data-name="&lt;Path&gt;" cx="112.843" cy="6.59" rx="112.843" ry="6.59" fill="#f5f5f5"/>
    </g>
    <g id="Bubble_Speech" data-name="Bubble Speech" transform="translate(172.611 77.71)">
      <g id="Group_2301" data-name="Group 2301">
        <path id="Path_15055" data-name="Path 15055" d="M381.928,121.639a9.421,9.421,0,0,0-.947-4.214c-.547-.961-2-3.515-20.144-3.515v-.582c18.483,0,19.947,2.573,20.65,3.81a9.959,9.959,0,0,1,1.023,4.479Z" transform="translate(-323.44 -113.328)" fill="#407bff"/>
        <path id="Path_15056" data-name="Path 15056" d="M395.537,140.851l-.567-.132a52.718,52.718,0,0,0,1-5.534l.578.07A53.31,53.31,0,0,1,395.537,140.851Z" transform="translate(-337.708 -122.464)" fill="#407bff"/>
        <path id="Path_15057" data-name="Path 15057" d="M352.857,119.608c-2.437-4.285-36.768-2.8-43.133-.967-8.614,2.476-12.486,24.717-13.142,30.082,0,0,5.055-5.311,9.516-6.65,2.125.743,25.534,4.835,29.9,6,4.978,1.329,10.272-.016,12.706-4.345S355.4,124.082,352.857,119.608Z" transform="translate(-296.582 -114.791)" fill="#f79520"/>
        <path id="Path_15058" data-name="Path 15058" d="M353.466,129.261a1.478,1.478,0,0,1-.207-.015c-16.239-2.315-35.032-.67-35.22-.653a1.455,1.455,0,0,1-.261-2.9c.191-.016,19.322-1.692,35.893.671a1.455,1.455,0,0,1-.2,2.9Z" transform="translate(-304.888 -118.25)" fill="#fff"/>
        <path id="Path_15059" data-name="Path 15059" d="M349.189,141.765a1.442,1.442,0,0,1-.253-.022,172.234,172.234,0,0,0-35.5-2.311,1.455,1.455,0,1,1-.175-2.9,175.109,175.109,0,0,1,36.179,2.35,1.455,1.455,0,0,1-.25,2.888Z" transform="translate(-302.982 -122.966)" fill="#fff"/>
        <path id="Path_15060" data-name="Path 15060" d="M338.44,154.767a1.449,1.449,0,0,1-.4-.056,90.952,90.952,0,0,0-27.347-3.319,1.455,1.455,0,0,1-.187-2.9,92.129,92.129,0,0,1,28.333,3.425,1.455,1.455,0,0,1-.4,2.855Z" transform="translate(-301.833 -127.992)" fill="#fff"/>
      </g>
    </g>
    <g id="Emoji" transform="translate(64.44 44.632)">
      <g id="Group_2305" data-name="Group 2305">
        <path id="Path_15061" data-name="Path 15061" d="M111.095,108.105c1.868-4.562,26.1-6.811,32.643-5.813,8.861,1.351,15.762,24.484,16.88,30.867,0,0-5.694-4.619-10.289-5.375a163.922,163.922,0,0,1-18.862,6.389c-5.03,1.112-10.19,1.3-13.157-2.68S109.145,112.868,111.095,108.105Z" transform="translate(-110.722 -75.539)" fill="#f79520"/>
        <path id="Path_15062" data-name="Path 15062" d="M143.74,102.293c-6.548-1-30.776,1.251-32.639,5.814a7.47,7.47,0,0,0-.332,3.294c4.679,7.362,11.791,13.019,19.986,13.392,9.946.326,19.829-4.592,23.664-10.412C151.533,108.229,147.855,102.921,143.74,102.293Z" transform="translate(-110.726 -75.539)" opacity="0.1"/>
        <g id="Group_2304" data-name="Group 2304" transform="translate(5.685)">
          <g id="Group_2302" data-name="Group 2302">
            <circle id="Ellipse_854" data-name="Ellipse 854" cx="16.946" cy="16.946" r="16.946" transform="matrix(0.616, -0.787, 0.787, 0.616, 0, 26.685)" fill="#407bff"/>
            <circle id="Ellipse_855" data-name="Ellipse 855" cx="16.946" cy="16.946" r="16.946" transform="matrix(0.616, -0.787, 0.787, 0.616, 0, 26.685)" fill="#fff" opacity="0.4"/>
          </g>
          <path id="Path_15063" data-name="Path 15063" d="M157.439,88.1c.205.41-.41,1.066-1.375,1.465s-1.913.389-2.118-.021.41-1.067,1.375-1.466S157.234,87.687,157.439,88.1Z" transform="translate(-134.458 -69.572)" fill="#407bff"/>
          <path id="Path_15064" data-name="Path 15064" d="M152.222,80.725a9.49,9.49,0,0,1,3.42-.639,11.66,11.66,0,0,1,1.759.119,9.086,9.086,0,0,1,1.755.431.577.577,0,0,1-.136,1.116l-.019,0c-.453.048-.962.147-1.442.248s-.961.253-1.438.406a11.783,11.783,0,0,0-1.393.573,11.489,11.489,0,0,0-1.343.783,5.3,5.3,0,0,1,1.036-1.236,7,7,0,0,1,1.345-.927,8.738,8.738,0,0,1,1.506-.637,8.331,8.331,0,0,1,1.62-.364l-.154,1.117a13.661,13.661,0,0,0-1.538-.411c-.531-.123-1.071-.212-1.617-.29s-1.1-.141-1.656-.178C153.367,80.78,152.8,80.774,152.222,80.725Z" transform="translate(-133.754 -66.353)" fill="#263238"/>
          <path id="Path_15065" data-name="Path 15065" d="M177.032,75.335a7.528,7.528,0,0,0-.868.5,4.544,4.544,0,0,0-.724.588,5.253,5.253,0,0,0-.587.693,4.723,4.723,0,0,0-.441.751l-.685-.552a4.181,4.181,0,0,1,1.173-.485,4.134,4.134,0,0,1,1.226-.129,3.707,3.707,0,0,1,2.226.8,7.591,7.591,0,0,0-1.121-.152,5.024,5.024,0,0,0-1.07.048,5.436,5.436,0,0,0-1.014.256,4.916,4.916,0,0,0-.909.427l-.023.015a.457.457,0,0,1-.662-.567,3.73,3.73,0,0,1,.6-.963,3.6,3.6,0,0,1,.829-.726,3.205,3.205,0,0,1,1-.437A2.866,2.866,0,0,1,177.032,75.335Z" transform="translate(-142.655 -64.36)" fill="#263238"/>
          <path id="Path_15066" data-name="Path 15066" d="M181.539,82.273c.045.442-.724.869-1.718.953s-1.836-.207-1.88-.649.724-.87,1.718-.953S181.494,81.831,181.539,82.273Z" transform="translate(-144.504 -66.991)" fill="#407bff"/>
          <g id="Group_2303" data-name="Group 2303" transform="translate(23.096 17.118)">
            <path id="Path_15067" data-name="Path 15067" d="M160.5,89.544a35.547,35.547,0,0,1,12.606-3.637.679.679,0,0,1,.726.6c.48,4.962-8.578,7.554-13.391,4.069A.6.6,0,0,1,160.5,89.544Z" transform="translate(-160.174 -85.905)" fill="#263238"/>
            <path id="Path_15068" data-name="Path 15068" d="M172.313,90.307a4.285,4.285,0,0,0-.865.549,3.749,3.749,0,0,0-2.528.328,3.573,3.573,0,0,0-2.089,2.5,11.226,11.226,0,0,0,3.483.033,10.82,10.82,0,0,0,2.556-.687,6.678,6.678,0,0,0,3.1-2.35C175.3,89.794,173.76,89.607,172.313,90.307Z" transform="translate(-162.957 -87.567)" fill="#407bff"/>
          </g>
        </g>
      </g>
    </g>
    <g id="Heart" transform="translate(119.221 28.118)">
      <g id="Group_2306" data-name="Group 2306">
        <path id="Path_15069" data-name="Path 15069" d="M224.507,31.751C216.866,24,199.784,29.494,206.3,40.263S227.377,58.867,230.224,63c1.939-8.4,7.337-13.751,10.85-20.772S235.362,24.868,224.507,31.751Z" transform="translate(-204.847 -28.118)" fill="#407bff"/>
        <path id="Path_15070" data-name="Path 15070" d="M224.507,31.751C216.866,24,199.784,29.494,206.3,40.263S227.377,58.867,230.224,63c1.939-8.4,7.337-13.751,10.85-20.772S235.362,24.868,224.507,31.751Z" transform="translate(-204.847 -28.118)" opacity="0.3"/>
      </g>
    </g>
    <g id="Character" transform="translate(86.504 79.107)">
      <g id="Group_2318" data-name="Group 2318">
        <g id="Group_2308" data-name="Group 2308" transform="translate(0 29.006)">
          <path id="Path_15071" data-name="Path 15071" d="M287.676,315.578h4.568l18.811,58.584h-1.523Z" transform="translate(-206.752 -228.272)" fill="#f79520"/>
          <path id="Path_15072" data-name="Path 15072" d="M255.982,315.578h4.568l7.121,58.584h-1.523Z" transform="translate(-193.505 -228.272)" fill="#f79520"/>
          <path id="Path_15073" data-name="Path 15073" d="M193.51,315.578h-4.568l-18.811,58.584h1.523Z" transform="translate(-157.619 -228.272)" fill="#f79520"/>
          <path id="Path_15074" data-name="Path 15074" d="M233.6,315.578h-4.568l-7.121,58.584h1.523Z" transform="translate(-179.262 -228.272)" fill="#f79520"/>
          <g id="Group_2307" data-name="Group 2307">
            <path id="Path_15075" data-name="Path 15075" d="M225.631,265.859c-22.037.258-53.353-.478-67.2-27.59-9.384-18.378-19.416-57.4,8.071-68.556s69.7,1.435,69.3,23.04,22.248,26.9,29.662,41.6C274.674,252.625,254.665,265.52,225.631,265.859Z" transform="translate(-148.632 -165.567)" fill="#407bff"/>
            <path id="Path_15076" data-name="Path 15076" d="M225.631,265.859c-22.037.258-53.353-.478-67.2-27.59-9.384-18.378-19.416-57.4,8.071-68.556s69.7,1.435,69.3,23.04,22.248,26.9,29.662,41.6C274.674,252.625,254.665,265.52,225.631,265.859Z" transform="translate(-148.632 -165.567)" fill="#fff" opacity="0.7"/>
          </g>
          <path id="Path_15077" data-name="Path 15077" d="M266.486,255.432c-.233,3.345-16.144,4.963-35.54,3.613s-31.647-2.376-35.2-10.013c-7.159-15.4-8.086-60.515,11.309-59.164S266.719,252.086,266.486,255.432Z" transform="translate(-166.364 -175.712)" fill="#407bff" opacity="0.3"/>
        </g>
        <g id="Group_2317" data-name="Group 2317" transform="translate(31.431)">
          <path id="Path_15078" data-name="Path 15078" d="M263.439,187.634l.154,1.038.178,1.113.391,2.247c.284,1.5.579,3,.915,4.486a85.631,85.631,0,0,0,2.419,8.747c.253.7.478,1.422.761,2.1.268.69.515,1.4.819,2.06s.606,1.408.8,1.88c.111.249.2.467.248.592.026.133.074.132-.417-.12a3.2,3.2,0,0,0-1.538-.3,3.079,3.079,0,0,0-1.049.244,3.166,3.166,0,0,0-.4.21,2.817,2.817,0,0,0-.287.212,1.229,1.229,0,0,0-.4.517c-.022.081.016.081.062.042a4.744,4.744,0,0,0,.79-1.389c.55-1.249,1.03-2.783,1.539-4.2l4.862.239a22.948,22.948,0,0,1,.322,5.4,11.377,11.377,0,0,1-.647,3.227,6.59,6.59,0,0,1-.535,1.094,5.375,5.375,0,0,1-1.219,1.4,4.411,4.411,0,0,1-.54.379,4.478,4.478,0,0,1-.671.34,4.89,4.89,0,0,1-1.638.366,5.294,5.294,0,0,1-2.689-.627,7.945,7.945,0,0,1-2.18-1.761,13.121,13.121,0,0,1-1.109-1.412,23.488,23.488,0,0,1-1.414-2.428,50.72,50.72,0,0,1-2.231-4.741,69.494,69.494,0,0,1-3.23-9.775c-.428-1.651-.784-3.316-1.1-4.991-.157-.837-.292-1.681-.419-2.529-.064-.426-.121-.852-.173-1.284s-.1-.84-.148-1.365Z" transform="translate(-223.966 -145.785)" fill="#ff8b7b"/>
          <g id="Group_2309" data-name="Group 2309" transform="translate(26.176 35.475)">
            <path id="Path_15079" data-name="Path 15079" d="M248.313,181.441c-2.967,5.519,4.465,20.139,4.465,20.139l13.371-7.28a81.975,81.975,0,0,0-4.316-11.275C258.229,174.962,251.907,174.756,248.313,181.441Z" transform="translate(-247.613 -176.682)" fill="#263238"/>
          </g>
          <path id="Path_15080" data-name="Path 15080" d="M278.638,219.064l.266-6.555,7.458,2.509s-.961,5.906-4.182,5.9Z" transform="translate(-234.405 -156.182)" fill="#ff8b7b"/>
          <path id="Path_15081" data-name="Path 15081" d="M284.069,204.31l2.465,1.321a2.273,2.273,0,0,1,1.078,2.738l-1.06,3.109-7.458-2.509,1.874-3.685A2.274,2.274,0,0,1,284.069,204.31Z" transform="translate(-234.596 -152.643)" fill="#ff8b7b"/>
          <path id="Path_15082" data-name="Path 15082" d="M236.535,175.461a73.131,73.131,0,0,0-22.689-1.288,10.654,10.654,0,0,0-9.487,9.211c-3.031,22.925-1.106,35.122-1.254,41.395,0,0,34.551,3.065,34.552,3.062-.281-6.566.244-23.7,3.5-45.711A5.951,5.951,0,0,0,236.535,175.461Z" transform="translate(-202.637 -140.009)" fill="#263238"/>
          <g id="Group_2312" data-name="Group 2312" transform="translate(20.805 59.216)">
            <path id="Path_15083" data-name="Path 15083" d="M309.59,299.725l6.486.161,2.748-14.941-6.486-.161Z" transform="translate(-268.148 -245.61)" fill="#ff8b7b"/>
            <path id="Path_15084" data-name="Path 15084" d="M315.229,307.23l-6.741-2.131a.5.5,0,0,0-.618.27l-2.414,5.291a1.056,1.056,0,0,0,.649,1.417c2.441.726,3.266.782,6.322,1.748,3.573,1.13,5.01,1.991,9.2,3.316,2.534.8,3.789-1.616,2.785-2.2-3.177-1.855-6.747-4.776-7.8-6.741A2.284,2.284,0,0,0,315.229,307.23Z" transform="translate(-266.384 -254.091)" fill="#263238"/>
            <path id="Path_15085" data-name="Path 15085" d="M319.776,284.952l-1.415,7.7-6.489-.161,1.415-7.7Z" transform="translate(-269.102 -245.613)" opacity="0.2"/>
            <g id="Group_2310" data-name="Group 2310">
              <path id="Path_15086" data-name="Path 15086" d="M292,217.96c-7.934-3.962-28.066,17.357-53.593,26.874-.552,9.736,10.353,14.745,22.027,13.324,11.565-1.407,15.837-7.536,19.395-15.976a46.584,46.584,0,0,0-.1,17.671l10.063,2.84S299.256,221.582,292,217.96Z" transform="translate(-238.384 -217.474)" fill="#757575"/>
              <path id="Path_15087" data-name="Path 15087" d="M292,217.96c-7.934-3.962-28.066,17.357-53.593,26.874-.552,9.736,10.353,14.745,22.027,13.324,11.565-1.407,15.837-7.536,19.395-15.976a46.584,46.584,0,0,0-.1,17.671l10.063,2.84S299.256,221.582,292,217.96Z" transform="translate(-238.384 -217.474)" fill="#757575" opacity="0.2"/>
            </g>
            <path id="Path_15088" data-name="Path 15088" d="M319.172,293.385l-13-1.194-.28-4.281,14.513,1.11Z" transform="translate(-266.604 -246.916)" fill="#263238"/>
            <g id="Group_2311" data-name="Group 2311" transform="translate(47.972 50.44)">
              <path id="Path_15089" data-name="Path 15089" d="M320.894,308.058a.153.153,0,0,1,.019-.282c.313-.109,3.078-1.052,3.8-.508a.489.489,0,0,1,.194.441h0a.861.861,0,0,1-.389.7c-.792.523-2.6.01-3.6-.343Zm3.578-.577c-.46-.236-1.935.1-3.021.441,1.384.436,2.449.524,2.894.23a.559.559,0,0,0,.253-.463.183.183,0,0,0-.073-.176A.371.371,0,0,0,324.472,307.482Z" transform="translate(-320.81 -305.378)" fill="#407bff"/>
              <path id="Path_15090" data-name="Path 15090" d="M320.894,306.821a.177.177,0,0,1-.036-.026.155.155,0,0,1-.044-.147,4.38,4.38,0,0,1,1.346-2.331,1.12,1.12,0,0,1,.879-.141h0c.413.1.5.331.507.505.015.743-1.716,1.914-2.54,2.151A.153.153,0,0,1,320.894,306.821Zm2.223-2.294a.7.7,0,0,0-.151-.054h0a.816.816,0,0,0-.647.105,3.6,3.6,0,0,0-1.126,1.859c.858-.363,2.055-1.306,2.046-1.752C323.238,304.659,323.237,304.588,323.117,304.526Z" transform="translate(-320.81 -304.14)" fill="#407bff"/>
            </g>
          </g>
          <path id="Path_15091" data-name="Path 15091" d="M243.3,167.178c-3.813-1.707-3.131-3.986-1.879-6.483l-8.022-7.3c.285,3.206.226,8.574-1.985,11.376a2.174,2.174,0,0,0,.209,2.976,17.322,17.322,0,0,0,9.066,4.423c3.922.684,4.793-.959,4.536-2.618A3.2,3.2,0,0,0,243.3,167.178Z" transform="translate(-214.462 -131.472)" fill="#ff8b7b"/>
          <path id="Path_15092" data-name="Path 15092" d="M240.035,158.473c-.85-.307-1.056.884-1.057,2.508,0,1.579,2.791,4.529,4.885,4.278a8.917,8.917,0,0,1,.924-2.461Z" transform="translate(-217.827 -133.575)" opacity="0.2"/>
          <path id="Path_15093" data-name="Path 15093" d="M258.8,140.735c2.206-2.136,5.028-8.018,4.441-10.922a11.189,11.189,0,0,0-7.288-.772,17.379,17.379,0,0,0-5.612,2.935l3.573,3.047-.071,2.061,1.992,2.205-.578,1.989a.937.937,0,0,0,1.328,1.1Z" transform="translate(-222.578 -121.164)" fill="#263238"/>
          <path id="Path_15094" data-name="Path 15094" d="M236.484,131.5c-1.66,6.209-2.948,9.762-.905,13.888,3.074,6.206,11.552,5.867,15.042.263,3.141-5.044,5.328-14.351.153-18.715A8.857,8.857,0,0,0,236.484,131.5Z" transform="translate(-215.968 -119.533)" fill="#ff8b7b"/>
          <path id="Path_15095" data-name="Path 15095" d="M232.538,134.818c-.321-3.835-.606-6.723-.606-10.109,1.673-.428,4.261-1.578,7.006-.3a17.381,17.381,0,0,1,4.99,3.9l-4.064,2.352-.3,2.04-2.357,1.809.211,2.06a.938.938,0,0,1-1.5.839Z" transform="translate(-214.882 -119.112)" fill="#263238"/>
          <path id="Path_15096" data-name="Path 15096" d="M262.094,126.229c2.954-1.545,6.956-9,.075-8.683-4.464.2-9.937.794-14.587-1.818a6.248,6.248,0,0,0,4.815,2.631c7.539.686,7.776-.535,10.031-.029C266.392,119.222,262.094,126.229,262.094,126.229Z" transform="translate(-221.424 -115.728)" fill="#263238"/>
          <path id="Path_15097" data-name="Path 15097" d="M256.146,120.253c-4.973-2.772-10.437-.615-14.67-2.219s-8.778.907-9.544,4.045l12,3.6c4.545,3.262,5.584,3.942,8.074,3.208C255.627,127.82,261.119,123.026,256.146,120.253Z" transform="translate(-214.882 -116.484)" fill="#263238"/>
          <path id="Path_15098" data-name="Path 15098" d="M231.995,124.2c-2.128.391-3.264,2.263-1.425,4.683a2.789,2.789,0,0,1,1.376-3.458Z" transform="translate(-213.927 -119.271)" fill="#263238"/>
          <path id="Path_15099" data-name="Path 15099" d="M229.458,142.481a6.05,6.05,0,0,0,2.5,3.923c1.767,1.211,3.356-.2,3.456-2.22.09-1.821-.72-4.645-2.778-5.049A2.762,2.762,0,0,0,229.458,142.481Z" transform="translate(-213.83 -125.489)" fill="#ff8b7b"/>
          <path id="Path_15100" data-name="Path 15100" d="M252.108,143.15c-.165.5-.036.983.289,1.088s.723-.211.889-.707.037-.983-.289-1.088S252.274,142.654,252.108,143.15Z" transform="translate(-223.286 -126.886)" fill="#263238"/>
          <path id="Path_15101" data-name="Path 15101" d="M262.459,147c-.166.5-.036.983.289,1.089s.723-.211.889-.707.036-.983-.289-1.089S262.625,146.5,262.459,147Z" transform="translate(-227.612 -128.495)" fill="#263238"/>
          <path id="Path_15102" data-name="Path 15102" d="M258.171,146.948a18.48,18.48,0,0,0,.961,5.01,3.031,3.031,0,0,1-2.527-.326Z" transform="translate(-225.195 -128.778)" fill="#ff5652"/>
          <path id="Path_15103" data-name="Path 15103" d="M250.606,154.144a4.263,4.263,0,0,1-2.269-2.537.154.154,0,0,1,.3-.08,4.114,4.114,0,0,0,2.7,2.578.152.152,0,0,1,.1.193.155.155,0,0,1-.195.1A5.091,5.091,0,0,1,250.606,154.144Z" transform="translate(-221.737 -130.645)" fill="#263238"/>
          <path id="Path_15104" data-name="Path 15104" d="M250.691,137.736a.3.3,0,0,1-.038-.527,3.076,3.076,0,0,1,2.781-.43.3.3,0,0,1,.168.4.311.311,0,0,1-.4.169h0a2.458,2.458,0,0,0-2.2.364A.31.31,0,0,1,250.691,137.736Z" transform="translate(-222.652 -124.462)" fill="#263238"/>
          <path id="Path_15105" data-name="Path 15105" d="M266.692,143.053a.305.305,0,0,1-.2-.213,2.41,2.41,0,0,0-1.413-1.7.3.3,0,0,1-.187-.389.31.31,0,0,1,.391-.191,3.023,3.023,0,0,1,1.808,2.13.309.309,0,0,1-.4.365Z" transform="translate(-228.654 -126.1)" fill="#263238"/>
          <g id="Group_2314" data-name="Group 2314" transform="translate(0.415 84.771)">
            <path id="Path_15106" data-name="Path 15106" d="M342.621,387.869l5.32-3.714L341.3,370.492l-5.32,3.714Z" transform="translate(-258.789 -306.99)" fill="#ff8b7b"/>
            <path id="Path_15107" data-name="Path 15107" d="M351.43,390.722l-6.465,2.861a.5.5,0,0,0-.285.611l1.69,5.565a1.056,1.056,0,0,0,1.424.633c2.311-1.07,2.966-1.573,5.9-2.87,3.427-1.517,5.074-1.821,9.094-3.6,2.43-1.076,1.773-3.718.632-3.494-3.61.711-8.219.881-10.311.107A2.283,2.283,0,0,0,351.43,390.722Z" transform="translate(-262.416 -315.317)" fill="#263238"/>
            <path id="Path_15108" data-name="Path 15108" d="M341.3,370.5l3.425,7.042-5.322,3.716-3.425-7.042Z" transform="translate(-258.788 -306.993)" opacity="0.2"/>
            <path id="Path_15109" data-name="Path 15109" d="M257.188,288.983c-43.762-1.368-54.713-.993-53.785-27.6l22.236,1.972s38.765,2.393,43.57,15.294c7.231,19.409,20.422,49.322,20.422,49.322l-8.716,5.775S262.977,311.827,257.188,288.983Z" transform="translate(-203.35 -261.382)" fill="#979797"/>
            <path id="Path_15110" data-name="Path 15110" d="M344.991,375.385l-11.175,6.74-2.763-3.282,12.347-7.707Z" transform="translate(-256.73 -307.259)" fill="#263238"/>
            <g id="Group_2313" data-name="Group 2313" transform="translate(87.629 72.402)">
              <path id="Path_15111" data-name="Path 15111" d="M355.118,389.577a.154.154,0,0,1-.153-.048.152.152,0,0,1-.019-.176c.162-.289,1.613-2.825,2.512-2.892a.489.489,0,0,1,.436.2h0a.862.862,0,0,1,.171.782c-.247.917-1.94,1.725-2.927,2.125Zm2.3-2.8c-.5.127-1.386,1.354-1.975,2.329,1.327-.588,2.184-1.227,2.323-1.741a.56.56,0,0,0-.117-.514.184.184,0,0,0-.171-.084A.38.38,0,0,0,357.421,386.778Z" transform="translate(-354.338 -386.067)" fill="#407bff"/>
              <path id="Path_15112" data-name="Path 15112" d="M354.7,389.294a.141.141,0,0,1-.044,0,.154.154,0,0,1-.13-.081,4.384,4.384,0,0,1-.534-2.638,1.12,1.12,0,0,1,.567-.688h0c.376-.2.6-.085.714.044.5.547-.021,2.57-.481,3.293A.15.15,0,0,1,354.7,389.294Zm.15-3.191a.7.7,0,0,0-.148.06h0a.815.815,0,0,0-.415.507,3.6,3.6,0,0,0,.385,2.14c.4-.84.677-2.34.375-2.667C355.023,386.122,354.975,386.07,354.845,386.1Zm-.219-.076h0Z" transform="translate(-353.915 -385.785)" fill="#407bff"/>
            </g>
          </g>
          <g id="Group_2316" data-name="Group 2316" transform="translate(3.104 34.75)">
            <path id="Path_15113" data-name="Path 15113" d="M278.7,209.259l-6.986-.111a1.829,1.829,0,0,0-1.341.54l-8.686,11.624a.566.566,0,0,0,.061.794c.225.225.5.17.926.176l6.877.1a1.829,1.829,0,0,0,1.342-.54l8.6-11.506C279.777,209.967,279.822,209.259,278.7,209.259Z" transform="translate(-230.367 -189.527)" fill="#407bff"/>
            <path id="Path_15114" data-name="Path 15114" d="M221.307,187.756l.111,1.388.135,1.46c.1.977.2,1.957.318,2.936.242,1.955.5,3.907.844,5.832a64,64,0,0,0,2.8,11.109c.3.868.669,1.714,1.02,2.5.165.417.243.5.219.575s.13.219.627.25a6.138,6.138,0,0,0,1.948-.257,18.789,18.789,0,0,0,2.409-.871c.826-.366,1.669-.788,2.512-1.241s1.685-.948,2.519-1.466,1.7-1.07,2.461-1.573l3.39,3.494c-.737.924-1.436,1.718-2.212,2.526s-1.568,1.57-2.423,2.3a28.777,28.777,0,0,1-2.717,2.117,21.086,21.086,0,0,1-3.179,1.841,13.879,13.879,0,0,1-4.068,1.228,10.025,10.025,0,0,1-2.588-.015,8.86,8.86,0,0,1-2.805-.876,8.757,8.757,0,0,1-2.377-1.78,10.775,10.775,0,0,1-1.571-2.138c-.584-1.058-1.117-2.081-1.588-3.136a61.516,61.516,0,0,1-4-12.77c-.431-2.147-.8-4.294-1.062-6.453-.136-1.078-.254-2.159-.343-3.246-.046-.543-.091-1.089-.12-1.638-.031-.564-.057-1.072-.077-1.715Z" transform="translate(-209.44 -180.585)" fill="#ff8b7b"/>
            <g id="Group_2315" data-name="Group 2315">
              <path id="Path_15115" data-name="Path 15115" d="M209.111,179.521c-3.54,5.17,2.286,20.5,2.286,20.5l14.073-5.808a81.929,81.929,0,0,0-3.085-11.672C219.664,174.14,213.4,173.259,209.111,179.521Z" transform="translate(-207.97 -175.435)" fill="#263238"/>
            </g>
            <path id="Path_15116" data-name="Path 15116" d="M257.091,221.565l4.814-4.458,3.514,7.04s-4.849,3.507-7.128,1.232Z" transform="translate(-228.502 -192.854)" fill="#ff8b7b"/>
            <path id="Path_15117" data-name="Path 15117" d="M272.174,216.309l.815,2.675a2.274,2.274,0,0,1-1.168,2.7l-2.945,1.454-3.514-7.04,3.928-1.289A2.273,2.273,0,0,1,272.174,216.309Z" transform="translate(-231.96 -191.847)" fill="#ff8b7b"/>
          </g>
        </g>
      </g>
    </g>
  </g>
</svg>
