<svg xmlns="http://www.w3.org/2000/svg" width="209.007" height="165.539" viewBox="0 0 209.007 165.539">
    <g id="Group_4830" data-name="Group 4830" transform="translate(-733.173 -150.862)">
        <g id="Group_4800" data-name="Group 4800" transform="translate(733.173 150.862)">
            <g id="Group_4753" data-name="Group 4753" transform="translate(54.313 71.196)">
                <g id="Group_4750" data-name="Group 4750">
                    <circle id="Ellipse_890" data-name="Ellipse 890" cx="47.171" cy="47.171" r="47.171" fill="#fff5f5" />
                </g>
                <g id="Group_4752" data-name="Group 4752" transform="translate(27.144 27.253)">
                    <g id="Group_4751" data-name="Group 4751">
                        <path id="Path_21968" data-name="Path 21968" d="M821.641,205.518c.6.49-8.209,12.342-19.681,26.468-2.445,2.967-4.791,5.813-6.948,8.429l-.949,1.153-1.02-1.052c-8.957-9.229-15.074-16.084-14.639-16.517s7.286,5.683,16.517,14.639l-1.969.1c2.119-2.649,4.422-5.526,6.823-8.53C811.246,216.085,821.037,205.03,821.641,205.518Z" transform="translate(-778.382 -205.502)" fill="#ee9a39" />
                    </g>
                </g>
            </g>
            <g id="Group_4754" data-name="Group 4754" transform="translate(160.652 94.875)">
                <path id="Path_21969" data-name="Path 21969" d="M830.176,208.007c-1.4-4.957-7.84-4.476-7.84-4.476l.177,3.447c3.722-.643,6.038,3.721,6.038,3.721Z" transform="translate(-822.336 -203.519)" fill="#e8505b" />
            </g>
            <g id="Group_4755" data-name="Group 4755" transform="translate(24.022 105.266)">
                <path id="Path_21970" data-name="Path 21970" d="M754.343,213.774c-1.4-4.957-7.838-4.476-7.838-4.476l.177,3.447c3.722-.641,6.036,3.721,6.036,3.721Z" transform="translate(-746.505 -209.286)" fill="#e0e0e0" />
            </g>
            <g id="Group_4756" data-name="Group 4756" transform="translate(105.006 32.268)">
                <path id="Path_21971" data-name="Path 21971" d="M793.562,177.713c7.47,2.263,12.119-6.353,12.119-6.353l-4.544-2.589c-2.223,5.277-9.685,4.667-9.685,4.667Z" transform="translate(-791.452 -168.771)" fill="#e0e0e0" />
            </g>
            <g id="Group_4757" data-name="Group 4757" transform="translate(61.767 50.484)">
                <path id="Path_21972" data-name="Path 21972" d="M771.346,178.881c-3.476.369-3.892,4.735-3.892,4.735l2.326.276c0-2.566,3.182-3.614,3.182-3.614Z" transform="translate(-767.454 -178.881)" fill="#e8505b" />
            </g>
            <g id="Group_4758" data-name="Group 4758" transform="translate(204.499 77.456)">
                <path id="Path_21973" data-name="Path 21973" d="M851.137,198.8c.5-3.459-3.62-4.944-3.62-4.944l-.845,2.186c2.485.632,2.712,3.978,2.712,3.978Z" transform="translate(-846.672 -193.851)" fill="#e0e0e0" />
            </g>
            <g id="Group_4759" data-name="Group 4759" transform="translate(81.477)">
                <path id="Path_21974" data-name="Path 21974" d="M782.86,155.808c.5-3.459-3.622-4.946-3.622-4.946l-.845,2.186c2.486.634,2.712,3.978,2.712,3.978Z" transform="translate(-778.393 -150.862)" fill="#e8505b" />
            </g>
            <g id="Group_4760" data-name="Group 4760" transform="translate(0 58.469)">
                <path id="Path_21975" data-name="Path 21975" d="M733.211,185.592c-.625,5.423,6.56,6.739,6.56,6.739l1.3-3.549c-4.312-.391-4.933-5.468-4.933-5.468Z" transform="translate(-733.172 -183.313)" fill="#e8505b" />
            </g>
            <g id="Group_4761" data-name="Group 4761" transform="translate(158.596 36.403)">
                <path id="Path_21976" data-name="Path 21976" d="M822.562,175.756c3.49.2,4.607-4.04,4.607-4.04l-2.25-.65c-.413,2.531-3.724,3.052-3.724,3.052Z" transform="translate(-821.195 -171.066)" fill="#e8505b" />
            </g>
            <g id="Group_4780" data-name="Group 4780" transform="translate(173.269 47.485)">
                <g id="Group_4766" data-name="Group 4766">
                    <g id="Group_4763" data-name="Group 4763" transform="translate(0 7.558)">
                        <g id="Group_4762" data-name="Group 4762">
                            <path id="Path_21977" data-name="Path 21977" d="M835.1,181.693a14.821,14.821,0,0,1-5.764,0,14.917,14.917,0,0,1,5.764,0Z" transform="translate(-829.339 -181.412)" fill="#e0e0e0" />
                        </g>
                    </g>
                    <g id="Group_4765" data-name="Group 4765" transform="translate(8.542)">
                        <g id="Group_4764" data-name="Group 4764">
                            <path id="Path_21978" data-name="Path 21978" d="M834.363,177.217a15.356,15.356,0,0,1,0,5.849,15.259,15.259,0,0,1,0-5.849Z" transform="translate(-834.08 -177.217)" fill="#e0e0e0" />
                        </g>
                    </g>
                </g>
                <g id="Group_4771" data-name="Group 4771" transform="translate(8.742 7.371)">
                    <g id="Group_4768" data-name="Group 4768" transform="translate(3.342)">
                        <g id="Group_4767" data-name="Group 4767">
                            <path id="Path_21979" data-name="Path 21979" d="M836.046,181.589a14.916,14.916,0,0,1,5.764,0,14.916,14.916,0,0,1-5.764,0Z" transform="translate(-836.046 -181.308)" fill="#e0e0e0" />
                        </g>
                    </g>
                    <g id="Group_4770" data-name="Group 4770" transform="translate(0 2.272)">
                        <g id="Group_4769" data-name="Group 4769">
                            <path id="Path_21980" data-name="Path 21980" d="M834.472,188.418a15.356,15.356,0,0,1,0-5.849,15.343,15.343,0,0,1,0,5.849Z" transform="translate(-834.191 -182.569)" fill="#e0e0e0" />
                        </g>
                    </g>
                </g>
                <g id="Group_4773" data-name="Group 4773" transform="translate(11.61 9.662)">
                    <g id="Group_4772" data-name="Group 4772">
                        <path id="Path_21981" data-name="Path 21981" d="M837.855,185.047c-.121.1-.676-.369-1.241-1.047s-.928-1.308-.809-1.407.676.369,1.241,1.047S837.974,184.948,837.855,185.047Z" transform="translate(-835.782 -182.58)" fill="#e0e0e0" />
                    </g>
                </g>
                <g id="Group_4775" data-name="Group 4775" transform="translate(11.266 3.221)">
                    <g id="Group_4774" data-name="Group 4774">
                        <path id="Path_21982" data-name="Path 21982" d="M837.738,179.023c.11.108-.276.677-.863,1.27s-1.155.984-1.265.876.277-.679.865-1.272S837.628,178.913,837.738,179.023Z" transform="translate(-835.592 -179.005)" fill="#e0e0e0" />
                    </g>
                </g>
                <g id="Group_4777" data-name="Group 4777" transform="translate(4.764 3.791)">
                    <g id="Group_4776" data-name="Group 4776">
                        <path id="Path_21983" data-name="Path 21983" d="M834.026,181.035c-.1.119-.634-.162-1.195-.627s-.932-.941-.832-1.059.634.16,1.193.627S834.125,180.914,834.026,181.035Z" transform="translate(-831.983 -179.321)" fill="#e0e0e0" />
                    </g>
                </g>
                <g id="Group_4779" data-name="Group 4779" transform="translate(4.594 9.405)">
                    <g id="Group_4778" data-name="Group 4778">
                        <path id="Path_21984" data-name="Path 21984" d="M833.843,182.454c.113.106-.225.665-.759,1.25s-1.058.975-1.173.87.224-.665.757-1.25S833.727,182.349,833.843,182.454Z" transform="translate(-831.888 -182.437)" fill="#e0e0e0" />
                    </g>
                </g>
            </g>
            <g id="Group_4799" data-name="Group 4799" transform="translate(16.309 31.425)">
                <g id="Group_4785" data-name="Group 4785">
                    <g id="Group_4782" data-name="Group 4782" transform="translate(0 7.558)">
                        <g id="Group_4781" data-name="Group 4781">
                            <path id="Path_21985" data-name="Path 21985" d="M747.988,172.779a14.822,14.822,0,0,1-5.764,0,14.915,14.915,0,0,1,5.764,0Z" transform="translate(-742.224 -172.498)" fill="#e8505b" />
                        </g>
                    </g>
                    <g id="Group_4784" data-name="Group 4784" transform="translate(8.542)">
                        <g id="Group_4783" data-name="Group 4783">
                            <path id="Path_21986" data-name="Path 21986" d="M747.246,168.3a15.356,15.356,0,0,1,0,5.849,15.356,15.356,0,0,1,0-5.849Z" transform="translate(-746.965 -168.303)" fill="#e8505b" />
                        </g>
                    </g>
                </g>
                <g id="Group_4790" data-name="Group 4790" transform="translate(8.74 7.371)">
                    <g id="Group_4787" data-name="Group 4787" transform="translate(3.342)">
                        <g id="Group_4786" data-name="Group 4786">
                            <path id="Path_21987" data-name="Path 21987" d="M748.93,172.675a14.916,14.916,0,0,1,5.764,0,14.916,14.916,0,0,1-5.764,0Z" transform="translate(-748.93 -172.394)" fill="#e8505b" />
                        </g>
                    </g>
                    <g id="Group_4789" data-name="Group 4789" transform="translate(0 2.272)">
                        <g id="Group_4788" data-name="Group 4788">
                            <path id="Path_21988" data-name="Path 21988" d="M747.358,179.5a15.258,15.258,0,0,1,0-5.849,15.349,15.349,0,0,1,0,5.849Z" transform="translate(-747.075 -173.655)" fill="#e8505b" />
                        </g>
                    </g>
                </g>
                <g id="Group_4792" data-name="Group 4792" transform="translate(11.61 9.662)">
                    <g id="Group_4791" data-name="Group 4791">
                        <path id="Path_21989" data-name="Path 21989" d="M750.739,176.133c-.119.1-.674-.369-1.24-1.047s-.928-1.308-.809-1.407.674.369,1.24,1.047S750.858,176.034,750.739,176.133Z" transform="translate(-748.667 -173.666)" fill="#e8505b" />
                    </g>
                </g>
                <g id="Group_4794" data-name="Group 4794" transform="translate(11.266 3.221)">
                    <g id="Group_4793" data-name="Group 4793">
                        <path id="Path_21990" data-name="Path 21990" d="M750.623,170.109c.11.108-.278.678-.865,1.27s-1.153.984-1.263.876.276-.679.863-1.272S750.511,170,750.623,170.109Z" transform="translate(-748.477 -170.091)" fill="#e8505b" />
                    </g>
                </g>
                <g id="Group_4796" data-name="Group 4796" transform="translate(4.764 3.791)">
                    <g id="Group_4795" data-name="Group 4795">
                        <path id="Path_21991" data-name="Path 21991" d="M746.909,172.121c-.1.119-.632-.162-1.193-.627s-.931-.939-.832-1.059.632.162,1.193.627S747.008,172,746.909,172.121Z" transform="translate(-744.868 -170.407)" fill="#e8505b" />
                    </g>
                </g>
                <g id="Group_4798" data-name="Group 4798" transform="translate(4.592 9.405)">
                    <g id="Group_4797" data-name="Group 4797">
                        <path id="Path_21992" data-name="Path 21992" d="M746.726,173.54c.115.106-.224.665-.757,1.25s-1.059.975-1.175.87.225-.665.759-1.25S746.611,173.435,746.726,173.54Z" transform="translate(-744.773 -173.523)" fill="#e8505b" />
                    </g>
                </g>
            </g>
        </g>
    </g>
</svg>

