<svg xmlns="http://www.w3.org/2000/svg" width="69.941" height="28.173" viewBox="0 0 69.941 28.173">
  <g id="Group_6342" data-name="Group 6342" transform="translate(0)">
    <path id="Path_24111" data-name="Path 24111" d="M827.086,340.763c-.167.776-.642.945-1.416.943-10.973-.03-21.947-.019-32.92-.024a1.474,1.474,0,0,1-.864-.088,6.963,6.963,0,0,0-6.9-7.6,6.877,6.877,0,0,0-7.015,5.767,5.178,5.178,0,0,0-.066,2.1.731.731,0,0,1-.1.65,6.393,6.393,0,0,1-2.848-.822,1.369,1.369,0,0,1-.768-1.581,1.833,1.833,0,0,0-.23-1.285v-.546a.177.177,0,0,0,0-.273v-.956a1.4,1.4,0,0,0,0-.956V335.4a3.7,3.7,0,0,0,.391-1.413,4.233,4.233,0,0,1,2.856-3.205,95.346,95.346,0,0,1,12.267-3.156,13.018,13.018,0,0,0,5.064-2.265c3.611-2.579,7.4-4.8,11.815-5.729a48.6,48.6,0,0,1,7.12-.731,89.3,89.3,0,0,1,10.713-.03c5.5.329,10.569,1.792,14.81,5.482,1.353,1.177,2.751,2.345,3.228,4.206-.231.241-.508.121-.769.09-1.926-.229-2.152.874-1.77,2.492.088.371.432.494.777.574a2.956,2.956,0,0,0,1.212.023.936.936,0,0,1,.843.1c.118,1.089.925,1.83,1.384,2.747v4.1a17.276,17.276,0,0,1-1.357,1.861,1.138,1.138,0,0,1-1.138.432,1.078,1.078,0,0,1-.224-.453,7.011,7.011,0,0,0-13.92-.627A8.6,8.6,0,0,1,827.086,340.763Z" transform="translate(-773.959 -318.726)" fill="#f79520"/>
    <path id="Path_24112" data-name="Path 24112" d="M773.959,414a.788.788,0,0,1,0,.956Z" transform="translate(-773.959 -396.64)" fill="#e25656"/>
    <path id="Path_24113" data-name="Path 24113" d="M773.959,424.495c.14.091.163.182,0,.273Z" transform="translate(-773.959 -405.223)" fill="#ec8f8f"/>
    <path id="Path_24114" data-name="Path 24114" d="M1135.845,375.487c-.5.046-.991.126-1.487.13-1.281.011-1.785-.551-1.708-1.854.079-1.355.442-1.691,1.823-1.658.36.009.719.07,1.079.106A8.74,8.74,0,0,1,1135.845,375.487Z" transform="translate(-1067.288 -362.377)" fill="#fed73b"/>
    <path id="Path_24115" data-name="Path 24115" d="M1083.408,413.379a.516.516,0,0,1,.082.409c-.426.028-.963-.089-1.243.128-.233.18-.149.753-.229,1.148a5.874,5.874,0,0,1-11.59-.683c-.027-.362-.12-.574-.449-.688a2.48,2.48,0,0,0,.356-1.017,6.1,6.1,0,0,1,5.821-4.913,6.032,6.032,0,0,1,6.034,4.815C1082.407,413.569,1082.445,413.594,1083.408,413.379Z" transform="translate(-1016.043 -391.54)" fill="#3e4347"/>
    <path id="Path_24116" data-name="Path 24116" d="M808.612,414.043c-.271.212-.185.54-.236.811a5.907,5.907,0,0,1-5.082,4.8,5.824,5.824,0,0,1-6.026-3.407c-.259-.593-.509-.95-1.2-.818a.492.492,0,0,1-.448-.106l.044-.052c.236-.28.8.067.89-.437a6.184,6.184,0,0,0-.012-1.02,6.063,6.063,0,0,1,12.121-.234A.862.862,0,0,1,808.612,414.043Z" transform="translate(-791.675 -391.524)" fill="#3e4347"/>
    <path id="Path_24117" data-name="Path 24117" d="M807.555,408.95c-.239-.729-.243-1.5-.5-2.238a5.885,5.885,0,0,0-11.316,3.049c.055.364-.039.453-.358.45-.273,0-.545.009-.818.014l-.053.009-.048-.025a7.245,7.245,0,0,1,9-8.442,7.138,7.138,0,0,1,5.2,6.176c.041.452.3.938-.122,1.354Z" transform="translate(-790.618 -386.43)" fill="#2e3235"/>
    <path id="Path_24118" data-name="Path 24118" d="M1079.287,408.16c-.171.527-.607.256-.927.287-.391.037-.306-.313-.344-.537a6.016,6.016,0,0,0-3.507-4.7,5.909,5.909,0,0,0-8.212,4.881c-.031.313-.188.376-.439.384-.282.041-.516-.245-.81-.117-.237-.4-.019-.81.05-1.189a7.2,7.2,0,0,1,14.135.109A7.376,7.376,0,0,1,1079.287,408.16Z" transform="translate(-1011.922 -386.321)" fill="#2e3235"/>
    <path id="Path_24119" data-name="Path 24119" d="M952.5,329.271c1.757-.126,1.755-.127,1.389,1.558s-.737,3.362-1.077,5.048c-.068.338-.169.544-.534.57q-2.949.206-5.9.421c-.078-.332.149-.561.3-.8q1.847-2.939,3.629-5.919a1.434,1.434,0,0,1,1.584-.851A1.374,1.374,0,0,0,952.5,329.271Z" transform="translate(-914.949 -327.31)" fill="#3e4347"/>
    <path id="Path_24120" data-name="Path 24120" d="M1046.366,331.531a6.963,6.963,0,0,1,5.145,2.806,3.043,3.043,0,0,1,.5.88c.323.884-.084,1.441-1,1.509-2.731.2-5.461.428-8.191.645-.185-.282.045-.479.164-.673.978-1.589,1.948-3.182,2.933-4.766A.848.848,0,0,1,1046.366,331.531Z" transform="translate(-993.777 -329.198)" fill="#3e4347"/>
    <path id="Path_24121" data-name="Path 24121" d="M913.091,334.546a16.1,16.1,0,0,1,4.365-1.651c.215.295,0,.521-.139.74-1.258,1.977-2.433,4.006-3.69,5.984a1.115,1.115,0,0,1-.522.515,26.932,26.932,0,0,1-3.562.28c-.09-.223.038-.395.144-.565.993-1.594,1.966-3.2,2.961-4.794A2,2,0,0,1,913.091,334.546Z" transform="translate(-884.814 -330.313)" fill="#5a5f63"/>
    <path id="Path_24122" data-name="Path 24122" d="M1009.584,335.16a33.434,33.434,0,0,1-3.969.352c-.062-.228.085-.388.191-.556,1.242-1.968,2.434-3.967,3.671-5.948-.023-.268-.469-.071-.44-.391a24.288,24.288,0,0,1,4.231.215,39.245,39.245,0,0,1-2.092,3.573A21.074,21.074,0,0,0,1009.584,335.16Z" transform="translate(-963.394 -326.792)" fill="#5a5f63"/>
    <path id="Path_24123" data-name="Path 24123" d="M1005.289,328.522c.2.2.491,0,.765.216l-4.187,6.679c-.868.069-.891.067-.828-.781.133-1.8.3-3.6.439-5.408.041-.527.2-.8.825-.75C1003.293,328.552,1004.292,328.513,1005.289,328.522Z" transform="translate(-959.645 -326.698)" fill="#3e4347"/>
    <path id="Path_24124" data-name="Path 24124" d="M895.56,341.955c-.988,1.835-2.166,3.556-3.229,5.347-.1.175-.212.348-.318.521l-3.936.343a6.377,6.377,0,0,1,2.241-3.057A25.418,25.418,0,0,1,895.56,341.955Z" transform="translate(-867.284 -337.723)" fill="#3e4347"/>
    <path id="Path_24125" data-name="Path 24125" d="M944.258,329.4c-.038.023-.082.074-.114.067-1.358-.287-1.824.694-2.377,1.619-1.187,1.984-2.417,3.943-3.629,5.911a5.056,5.056,0,0,1-1.789.14c-.193-.367.111-.6.262-.846,1.2-1.941,2.388-3.888,3.588-5.828a2.753,2.753,0,0,0,.372-.718A11.69,11.69,0,0,1,944.258,329.4Z" transform="translate(-906.71 -327.435)" fill="#5a5f63"/>
    <path id="Path_24126" data-name="Path 24126" d="M785.682,386.173a3.5,3.5,0,0,1,.533.061c.417.119.866.23,1,.719s-.213.811-.542,1.09a7.066,7.066,0,0,1-3.837,1.414c-.427.056-.857.086-1.287.113a.718.718,0,0,1-.619-.222c-.152-.179-.026-.367.086-.492A7.105,7.105,0,0,1,785.682,386.173Z" transform="translate(-779.6 -373.884)" fill="#fed73b"/>
    <path id="Path_24127" data-name="Path 24127" d="M1037.945,330.442c-1.176,1.95-2.445,3.843-3.543,5.84a9.883,9.883,0,0,1-1.913.148.4.4,0,0,1,.046-.39c1.2-1.953,2.349-3.941,3.639-5.84A5.9,5.9,0,0,1,1037.945,330.442Z" transform="translate(-985.357 -328.109)" fill="#5a5f63"/>
    <path id="Path_24128" data-name="Path 24128" d="M934.8,331.384c.275.272-.01.451-.124.637q-2.018,3.284-4.048,6.561a.679.679,0,0,0-.05.2,6.326,6.326,0,0,1-1.349.122q2.106-3.4,4.207-6.794a1.952,1.952,0,0,0,.144-.444A4.783,4.783,0,0,1,934.8,331.384Z" transform="translate(-900.936 -329.078)" fill="#3e4347"/>
    <path id="Path_24129" data-name="Path 24129" d="M1031.206,329.969a2.848,2.848,0,0,1-.6,1.192q-1.535,2.524-3.084,5.038l-.943.046c-.361-.076-.13-.241-.051-.371.906-1.485,1.8-2.977,2.732-4.446a6.053,6.053,0,0,1,1-1.512Z" transform="translate(-980.388 -327.878)" fill="#3e4347"/>
    <path id="Path_24130" data-name="Path 24130" d="M1082.915,423.313a3.937,3.937,0,1,1,3.966,3.941A3.977,3.977,0,0,1,1082.915,423.313Z" transform="translate(-1026.621 -401.038)" fill="#cad5df"/>
    <path id="Path_24131" data-name="Path 24131" d="M816.193,419.379a3.938,3.938,0,1,1-3.924,3.984A3.984,3.984,0,0,1,816.193,419.379Z" transform="translate(-805.289 -401.039)" fill="#cad5df"/>
    <path id="Path_24132" data-name="Path 24132" d="M1090.121,429.909a3.088,3.088,0,0,1-3.214-3.156,3.121,3.121,0,0,1,3.214-3.172,3.164,3.164,0,1,1,0,6.328Z" transform="translate(-1029.886 -404.474)" fill="#939799"/>
    <path id="Path_24133" data-name="Path 24133" d="M819.461,429.9a3.088,3.088,0,0,1-3.182-3.191,3.193,3.193,0,1,1,3.182,3.191Z" transform="translate(-808.568 -404.465)" fill="#939799"/>
    <path id="Path_24134" data-name="Path 24134" d="M1091.85,430.6a2.362,2.362,0,0,1,2.286-2.321,2.317,2.317,0,1,1,.009,4.633A2.351,2.351,0,0,1,1091.85,430.6Z" transform="translate(-1033.928 -408.314)" fill="#cad5df"/>
    <path id="Path_24135" data-name="Path 24135" d="M821.2,430.571a2.361,2.361,0,0,1,2.309-2.3,2.317,2.317,0,1,1-.038,4.634A2.355,2.355,0,0,1,821.2,430.571Z" transform="translate(-812.595 -408.313)" fill="#cad5df"/>
  </g>
</svg>
