<svg xmlns="http://www.w3.org/2000/svg" width="52.283" height="29.384" viewBox="0 0 52.283 29.384">
  <g id="Group_6343" data-name="Group 6343" transform="translate(-50.084 -252.027)">
    <path id="Path_24140" data-name="Path 24140" d="M50.084,253.971a2.526,2.526,0,0,1,1.881-1.872,3.343,3.343,0,0,1,.707-.065q23.554,0,47.107-.006a2.534,2.534,0,0,1,2.588,1.944v8.577a2.591,2.591,0,0,1-1.038,1.617,3.172,3.172,0,0,0-.012,5.094,2.433,2.433,0,0,1,1.05,1.662V279.5a3.724,3.724,0,0,1-.794,1.274,2.711,2.711,0,0,1-1.887.624q-6.689-.009-13.377,0c-11.063,0-22.125-.014-33.188.017a2.793,2.793,0,0,1-3.038-1.913v-8.68a2.571,2.571,0,0,1,1.05-1.56,3.172,3.172,0,0,0-.011-5.095,2.592,2.592,0,0,1-1.039-1.617Z" transform="translate(0 0)"/>
    <path id="Path_24141" data-name="Path 24141" d="M80.5,282.786a5.022,5.022,0,0,0-.012-5.189,2.237,2.237,0,0,1-.159-.894q0-4.429,0-8.857a1.019,1.019,0,0,1,.164-.774c.187-.006.373-.016.56-.016h45.626c1.059,0,1.3.234,1.3,1.277,0,2.3-.009,4.593.007,6.89a1.315,1.315,0,0,1-.545,1.13,4.816,4.816,0,0,0,0,7.7,1.305,1.305,0,0,1,.547,1.129c-.022,2.16-.019,4.32-.024,6.48a.87.87,0,0,1-.674.164q-11.456.006-22.912,0a1.215,1.215,0,0,1-.644-.111c-.142-.125-.055-.246.016-.358a3.03,3.03,0,0,0,.223-2.17.57.57,0,0,0-.626-.54.562.562,0,0,0-.577.537,3.033,3.033,0,0,0,.222,2.169c.062.1.141.2.057.325a1.009,1.009,0,0,1-.685.141q-9.288,0-18.576,0a3.436,3.436,0,0,1-3.467-3.5c.072-1.545.017-3.1.013-4.643A2.032,2.032,0,0,1,80.5,282.786Z" transform="translate(-27.144 -13.492)" fill="#f79520"/>
    <path id="Path_24142" data-name="Path 24142" d="M89.972,429.839c.155.156.354.092.533.092q11.877,0,23.754,0c.08,1.518-.084,1.693-1.582,1.693H66.482c-.17,0-.341.008-.51,0a.865.865,0,0,1-.913-.943c-.008-2.467,0-4.934-.006-7.4a.96.96,0,0,1,.405-.834,6.421,6.421,0,0,0,1.335-1.388c0,1.9.03,3.807-.012,5.709a3.237,3.237,0,0,0,3.181,3.169q9.1,0,18.2-.007a2.459,2.459,0,0,0,1.2-.088A.42.42,0,0,1,89.972,429.839Z" transform="translate(-13.44 -151.762)" fill="#ffb564"/>
    <path id="Path_24143" data-name="Path 24143" d="M66.791,267.078q-.005,5.263-.01,10.526a6.84,6.84,0,0,0-1.341-1.379.964.964,0,0,1-.388-.841c.005-2.446,0-4.892.005-7.337a.878.878,0,0,1,.971-.983C66.282,267.058,66.537,267.073,66.791,267.078Z" transform="translate(-13.439 -13.499)" fill="#ffb564"/>
    <path id="Path_24144" data-name="Path 24144" d="M118.813,305.777a13.543,13.543,0,0,1-2.183-1.435,2.4,2.4,0,1,1,3.387-3.383,12.5,12.5,0,0,1,1.414,2.162c.407-.629.778-1.248,1.2-1.835a2.416,2.416,0,0,1,2.493-1.143,2.253,2.253,0,0,1,1.9,1.7,2.3,2.3,0,0,1-.7,2.458,21.718,21.718,0,0,1-2.139,1.525c.835,0,1.671,0,2.506,0a4.415,4.415,0,0,1,.762.036,1.513,1.513,0,0,1,1.3,1.483q.024,4.976,0,9.953a1.5,1.5,0,0,1-1.589,1.517c-1.071.026-2.143.009-3.215.009q-3.93,0-7.861,0c-1.373,0-1.95-.581-1.95-1.954q0-4.594,0-9.187a1.648,1.648,0,0,1,1.849-1.857c.885,0,1.769,0,2.654,0A1.127,1.127,0,0,0,118.813,305.777Z" transform="translate(-57.507 -43.163)"/>
    <path id="Path_24145" data-name="Path 24145" d="M375.737,316.9a1.318,1.318,0,0,1-.392.787q-4.35,5.6-8.7,11.188c-.824,1.06-1.644,2.124-2.476,3.177a.769.769,0,1,1-1.184-.96c.02-.027.041-.054.062-.081l11.2-14.412c.245-.315.522-.544.954-.4A.76.76,0,0,1,375.737,316.9Z" transform="translate(-280.735 -57.58)"/>
    <path id="Path_24146" data-name="Path 24146" d="M438,418.7a3.219,3.219,0,0,1,.077-6.437A3.219,3.219,0,1,1,438,418.7Z" transform="translate(-345.456 -143.869)"/>
    <path id="Path_24147" data-name="Path 24147" d="M357.917,322.564a3.218,3.218,0,0,1-.027-6.436,3.218,3.218,0,1,1,.027,6.436Z" transform="translate(-273.504 -57.553)"/>
    <path id="Path_24148" data-name="Path 24148" d="M299.985,381.824c0,.289.021.579,0,.865a.711.711,0,0,1-.767.714.686.686,0,0,1-.731-.693,16.868,16.868,0,0,1,0-1.731.748.748,0,0,1,.765-.73.77.77,0,0,1,.74.761c.021.27,0,.543,0,.815Z" transform="translate(-223.003 -115.123)"/>
    <path id="Path_24149" data-name="Path 24149" d="M298.568,430a8.008,8.008,0,0,1,.007-.915.684.684,0,0,1,.733-.639.665.665,0,0,1,.738.628,15.238,15.238,0,0,1,0,1.881.656.656,0,0,1-.728.632.686.686,0,0,1-.75-.671,8.96,8.96,0,0,1-.006-.916Z" transform="translate(-223.088 -158.4)"/>
    <path id="Path_24150" data-name="Path 24150" d="M299.537,479.635h-.613a.941.941,0,0,1-.463-.9c.013-.476-.011-.953.011-1.429a.759.759,0,1,1,1.517,0c.022.527.005,1.055,0,1.582A.87.87,0,0,1,299.537,479.635Z" transform="translate(-223.005 -201.558)"/>
    <path id="Path_24151" data-name="Path 24151" d="M300,285.736c0,.289.023.58-.005.866a.7.7,0,0,1-.737.691.676.676,0,0,1-.752-.669,16.005,16.005,0,0,1,0-1.783.7.7,0,0,1,.735-.7.735.735,0,0,1,.763.728c.025.286,0,.577,0,.866Z" transform="translate(-223.019 -28.833)"/>
    <path id="Path_24152" data-name="Path 24152" d="M299.98,333.748c0,.238.008.476,0,.714-.024.574-.3.879-.777.872s-.737-.316-.751-.9c-.011-.442-.01-.884,0-1.325.012-.587.315-.944.777-.935s.74.354.754.961C299.985,333.34,299.981,333.544,299.98,333.748Z" transform="translate(-222.988 -71.961)"/>
    <path id="Path_24153" data-name="Path 24153" d="M152.752,402.227c.249.661.351.752,1.136.721.425-.017.544.115.532.534-.035,1.214-.026,2.43-.035,3.645a.945.945,0,0,1-.677.163c-2.666,0-5.331.008-8,0-.951,0-1.283-.345-1.295-1.3-.009-.815-.008-1.63,0-2.445,0-.385.137-.565.578-.563,1.8.008,3.6.047,5.4-.017a.8.8,0,0,0,.635-.942C151.6,402.149,152.2,401.942,152.752,402.227Z" transform="translate(-84.691 -134.675)" fill="#e4646e"/>
    <path id="Path_24154" data-name="Path 24154" d="M136.625,411.14c-.164.136-.36.075-.541.076-1.6,0-3.2.014-4.8-.006-.388,0-.5.119-.486.5.025.85.007,1.7.008,2.551,0,.783.257,1.043,1.031,1.044h8.777c.008.441.006.883.027,1.323.013.269-.095.351-.356.35q-5.43-.009-10.861,0c-.265,0-.352-.092-.351-.356q.013-2.575,0-5.15c0-.277.1-.343.359-.342C131.833,411.138,134.229,411.137,136.625,411.14Z" transform="translate(-70.925 -142.849)" fill="#da4655"/>
    <path id="Path_24155" data-name="Path 24155" d="M152.523,374.783c-.417,0-.834-.011-1.251,0a.5.5,0,0,1-.474-.206.915.915,0,0,0-1.005-.6c-1.815,0-3.629-.011-5.444-.018a4.611,4.611,0,0,1-.107-2.253c.024-.312.319-.243.53-.244q2.755,0,5.509,0c1.122,0,2.245,0,3.367,0a.966.966,0,0,1,.5.047c.011.726.014,1.452.038,2.178.009.271-.125.3-.341.3a1.42,1.42,0,0,0-.977.168A.735.735,0,0,0,152.523,374.783Z" transform="translate(-84.462 -107.231)" fill="#fe7f85"/>
    <path id="Path_24156" data-name="Path 24156" d="M140.607,371.131c-3.08,0-6.161.011-9.241-.008-.449,0-.6.112-.571.569.04.627.011,1.259.012,1.888-.458.007-.917,0-1.375.024-.253.011-.367-.057-.359-.337q.027-.943,0-1.887c-.007-.279.106-.342.361-.341q5.457,0,10.915,0C140.442,371.036,140.558,371,140.607,371.131Z" transform="translate(-70.92 -106.848)" fill="#e4636d"/>
    <path id="Path_24157" data-name="Path 24157" d="M193.319,318.457a15.758,15.758,0,0,1,1.8-3.008.855.855,0,0,1,1.332-.092.887.887,0,0,1-.148,1.335A15.846,15.846,0,0,1,193.319,318.457Z" transform="translate(-128.604 -56.613)" fill="#ffb564"/>
    <path id="Path_24158" data-name="Path 24158" d="M148.354,318.26a10.716,10.716,0,0,1-2.952-1.735.858.858,0,0,1,1.177-1.249A10.616,10.616,0,0,1,148.354,318.26Z" transform="translate(-85.328 -56.566)" fill="#ffb564"/>
    <path id="Path_24159" data-name="Path 24159" d="M451.511,430.639a1.662,1.662,0,0,1-1.682-1.678,1.688,1.688,0,0,1,1.677-1.7,1.721,1.721,0,0,1,1.7,1.692A1.688,1.688,0,0,1,451.511,430.639Z" transform="translate(-358.911 -157.337)" fill="#ffb564"/>
    <path id="Path_24160" data-name="Path 24160" d="M371.351,334.488a1.661,1.661,0,0,1-1.655-1.7,1.688,1.688,0,0,1,1.7-1.669,1.722,1.722,0,0,1,1.671,1.718A1.69,1.69,0,0,1,371.351,334.488Z" transform="translate(-286.964 -71.009)" fill="#ffb564"/>
  </g>
</svg>
